<mxfile host="app.diagrams.net" agent="Mozilla/5.0 (Windows NT 10.0; Win64; x64) AppleWebKit/537.36 (KHTML, like Gecko) Chrome/130.0.0.0 Safari/537.36 Edg/130.0.0.0" version="24.8.6">
  <diagram name="PÃ¡gina-1" id="8BhfrnoC1LBUCRXSbFxE">
    <mxGraphModel dx="2137" dy="888" grid="1" gridSize="10" guides="1" tooltips="1" connect="1" arrows="1" fold="1" page="1" pageScale="1" pageWidth="827" pageHeight="1169" math="0" shadow="0">
      <root>
        <mxCell id="0" />
        <mxCell id="1" parent="0" />
        <mxCell id="68Y1kHrZlz7YmdwNkERL-4" style="edgeStyle=orthogonalEdgeStyle;rounded=0;orthogonalLoop=1;jettySize=auto;html=1;entryX=0;entryY=0.5;entryDx=0;entryDy=0;" parent="1" source="68Y1kHrZlz7YmdwNkERL-1" target="68Y1kHrZlz7YmdwNkERL-2" edge="1">
          <mxGeometry relative="1" as="geometry" />
        </mxCell>
        <mxCell id="68Y1kHrZlz7YmdwNkERL-5" style="edgeStyle=orthogonalEdgeStyle;rounded=0;orthogonalLoop=1;jettySize=auto;html=1;entryX=0;entryY=0.5;entryDx=0;entryDy=0;" parent="1" source="68Y1kHrZlz7YmdwNkERL-1" target="68Y1kHrZlz7YmdwNkERL-3" edge="1">
          <mxGeometry relative="1" as="geometry" />
        </mxCell>
        <mxCell id="68Y1kHrZlz7YmdwNkERL-18" style="edgeStyle=orthogonalEdgeStyle;rounded=0;orthogonalLoop=1;jettySize=auto;html=1;entryX=0;entryY=0.5;entryDx=0;entryDy=0;" parent="1" source="68Y1kHrZlz7YmdwNkERL-1" target="68Y1kHrZlz7YmdwNkERL-17" edge="1">
          <mxGeometry relative="1" as="geometry" />
        </mxCell>
        <mxCell id="68Y1kHrZlz7YmdwNkERL-1" value="Home (ads)&lt;div&gt;Anonymous&lt;/div&gt;" style="rounded=1;whiteSpace=wrap;html=1;fillColor=#FFFF66;" parent="1" vertex="1">
          <mxGeometry x="30" y="140" width="160" height="70" as="geometry" />
        </mxCell>
        <mxCell id="68Y1kHrZlz7YmdwNkERL-8" style="edgeStyle=orthogonalEdgeStyle;rounded=0;orthogonalLoop=1;jettySize=auto;html=1;entryX=0.5;entryY=0;entryDx=0;entryDy=0;" parent="1" source="68Y1kHrZlz7YmdwNkERL-2" target="68Y1kHrZlz7YmdwNkERL-3" edge="1">
          <mxGeometry relative="1" as="geometry" />
        </mxCell>
        <mxCell id="68Y1kHrZlz7YmdwNkERL-2" value="Register" style="rounded=1;whiteSpace=wrap;html=1;" parent="1" vertex="1">
          <mxGeometry x="280" y="140" width="160" height="70" as="geometry" />
        </mxCell>
        <mxCell id="68Y1kHrZlz7YmdwNkERL-12" style="edgeStyle=orthogonalEdgeStyle;rounded=0;orthogonalLoop=1;jettySize=auto;html=1;entryX=0.5;entryY=0;entryDx=0;entryDy=0;" parent="1" source="68Y1kHrZlz7YmdwNkERL-3" target="68Y1kHrZlz7YmdwNkERL-11" edge="1">
          <mxGeometry relative="1" as="geometry" />
        </mxCell>
        <mxCell id="68Y1kHrZlz7YmdwNkERL-3" value="Sign In" style="rounded=1;whiteSpace=wrap;html=1;" parent="1" vertex="1">
          <mxGeometry x="280" y="250" width="160" height="70" as="geometry" />
        </mxCell>
        <mxCell id="68Y1kHrZlz7YmdwNkERL-22" style="edgeStyle=orthogonalEdgeStyle;rounded=0;orthogonalLoop=1;jettySize=auto;html=1;entryX=0.5;entryY=0;entryDx=0;entryDy=0;" parent="1" source="68Y1kHrZlz7YmdwNkERL-11" target="68Y1kHrZlz7YmdwNkERL-21" edge="1">
          <mxGeometry relative="1" as="geometry" />
        </mxCell>
        <mxCell id="68Y1kHrZlz7YmdwNkERL-32" style="edgeStyle=orthogonalEdgeStyle;rounded=0;orthogonalLoop=1;jettySize=auto;html=1;entryX=0.5;entryY=1;entryDx=0;entryDy=0;" parent="1" source="68Y1kHrZlz7YmdwNkERL-11" target="68Y1kHrZlz7YmdwNkERL-1" edge="1">
          <mxGeometry relative="1" as="geometry" />
        </mxCell>
        <mxCell id="68Y1kHrZlz7YmdwNkERL-11" value="Home (ads)&lt;div&gt;Sign in&lt;/div&gt;" style="rounded=1;whiteSpace=wrap;html=1;fillColor=#FFFF66;" parent="1" vertex="1">
          <mxGeometry x="280" y="380" width="160" height="70" as="geometry" />
        </mxCell>
        <mxCell id="68Y1kHrZlz7YmdwNkERL-20" style="edgeStyle=orthogonalEdgeStyle;rounded=0;orthogonalLoop=1;jettySize=auto;html=1;entryX=0;entryY=0.5;entryDx=0;entryDy=0;startArrow=classic;startFill=1;" parent="1" source="68Y1kHrZlz7YmdwNkERL-17" target="68Y1kHrZlz7YmdwNkERL-19" edge="1">
          <mxGeometry relative="1" as="geometry" />
        </mxCell>
        <mxCell id="68Y1kHrZlz7YmdwNkERL-17" value="Specific Ad" style="rounded=1;whiteSpace=wrap;html=1;" parent="1" vertex="1">
          <mxGeometry x="280" y="30" width="160" height="70" as="geometry" />
        </mxCell>
        <mxCell id="68Y1kHrZlz7YmdwNkERL-19" value="Question" style="rounded=1;whiteSpace=wrap;html=1;" parent="1" vertex="1">
          <mxGeometry x="510" y="30" width="160" height="70" as="geometry" />
        </mxCell>
        <mxCell id="68Y1kHrZlz7YmdwNkERL-24" style="edgeStyle=orthogonalEdgeStyle;rounded=0;orthogonalLoop=1;jettySize=auto;html=1;entryX=0;entryY=0.5;entryDx=0;entryDy=0;" parent="1" source="68Y1kHrZlz7YmdwNkERL-21" target="68Y1kHrZlz7YmdwNkERL-23" edge="1">
          <mxGeometry relative="1" as="geometry" />
        </mxCell>
        <mxCell id="68Y1kHrZlz7YmdwNkERL-26" style="edgeStyle=orthogonalEdgeStyle;rounded=0;orthogonalLoop=1;jettySize=auto;html=1;entryX=0;entryY=0.5;entryDx=0;entryDy=0;" parent="1" source="68Y1kHrZlz7YmdwNkERL-21" target="68Y1kHrZlz7YmdwNkERL-25" edge="1">
          <mxGeometry relative="1" as="geometry" />
        </mxCell>
        <mxCell id="68Y1kHrZlz7YmdwNkERL-29" style="edgeStyle=orthogonalEdgeStyle;rounded=0;orthogonalLoop=1;jettySize=auto;html=1;entryX=0;entryY=0.5;entryDx=0;entryDy=0;" parent="1" source="68Y1kHrZlz7YmdwNkERL-21" target="68Y1kHrZlz7YmdwNkERL-28" edge="1">
          <mxGeometry relative="1" as="geometry" />
        </mxCell>
        <mxCell id="eTjQ6S--0Idmj-UR16j9-6" style="edgeStyle=orthogonalEdgeStyle;rounded=0;orthogonalLoop=1;jettySize=auto;html=1;entryX=0.5;entryY=0;entryDx=0;entryDy=0;startArrow=classic;startFill=1;" edge="1" parent="1" source="68Y1kHrZlz7YmdwNkERL-21" target="eTjQ6S--0Idmj-UR16j9-5">
          <mxGeometry relative="1" as="geometry" />
        </mxCell>
        <mxCell id="68Y1kHrZlz7YmdwNkERL-21" value="Account" style="rounded=1;whiteSpace=wrap;html=1;" parent="1" vertex="1">
          <mxGeometry x="280" y="490" width="160" height="70" as="geometry" />
        </mxCell>
        <mxCell id="68Y1kHrZlz7YmdwNkERL-27" style="edgeStyle=orthogonalEdgeStyle;rounded=0;orthogonalLoop=1;jettySize=auto;html=1;entryX=0.5;entryY=1;entryDx=0;entryDy=0;" parent="1" source="68Y1kHrZlz7YmdwNkERL-23" target="68Y1kHrZlz7YmdwNkERL-25" edge="1">
          <mxGeometry relative="1" as="geometry" />
        </mxCell>
        <mxCell id="68Y1kHrZlz7YmdwNkERL-23" value="Add ad" style="rounded=1;whiteSpace=wrap;html=1;" parent="1" vertex="1">
          <mxGeometry x="520" y="650" width="160" height="70" as="geometry" />
        </mxCell>
        <mxCell id="eTjQ6S--0Idmj-UR16j9-3" style="edgeStyle=orthogonalEdgeStyle;rounded=0;orthogonalLoop=1;jettySize=auto;html=1;entryX=0;entryY=0.5;entryDx=0;entryDy=0;" edge="1" parent="1" source="68Y1kHrZlz7YmdwNkERL-25" target="eTjQ6S--0Idmj-UR16j9-2">
          <mxGeometry relative="1" as="geometry" />
        </mxCell>
        <mxCell id="68Y1kHrZlz7YmdwNkERL-25" value="List ads" style="rounded=1;whiteSpace=wrap;html=1;" parent="1" vertex="1">
          <mxGeometry x="520" y="490" width="160" height="70" as="geometry" />
        </mxCell>
        <mxCell id="68Y1kHrZlz7YmdwNkERL-31" style="edgeStyle=orthogonalEdgeStyle;rounded=0;orthogonalLoop=1;jettySize=auto;html=1;entryX=0.5;entryY=1;entryDx=0;entryDy=0;" parent="1" source="68Y1kHrZlz7YmdwNkERL-28" target="68Y1kHrZlz7YmdwNkERL-30" edge="1">
          <mxGeometry relative="1" as="geometry" />
        </mxCell>
        <mxCell id="68Y1kHrZlz7YmdwNkERL-28" value="List questions" style="rounded=1;whiteSpace=wrap;html=1;" parent="1" vertex="1">
          <mxGeometry x="520" y="360" width="160" height="70" as="geometry" />
        </mxCell>
        <mxCell id="68Y1kHrZlz7YmdwNkERL-30" value="Answer a specific question" style="rounded=1;whiteSpace=wrap;html=1;" parent="1" vertex="1">
          <mxGeometry x="520" y="260" width="160" height="70" as="geometry" />
        </mxCell>
        <mxCell id="68Y1kHrZlz7YmdwNkERL-33" value="Sign Out" style="text;html=1;align=center;verticalAlign=middle;whiteSpace=wrap;rounded=0;" parent="1" vertex="1">
          <mxGeometry x="170" y="390" width="60" height="30" as="geometry" />
        </mxCell>
        <mxCell id="68Y1kHrZlz7YmdwNkERL-34" style="edgeStyle=orthogonalEdgeStyle;rounded=0;orthogonalLoop=1;jettySize=auto;html=1;entryX=0;entryY=0.5;entryDx=0;entryDy=0;" parent="1" source="68Y1kHrZlz7YmdwNkERL-37" target="68Y1kHrZlz7YmdwNkERL-39" edge="1">
          <mxGeometry relative="1" as="geometry" />
        </mxCell>
        <mxCell id="68Y1kHrZlz7YmdwNkERL-35" style="edgeStyle=orthogonalEdgeStyle;rounded=0;orthogonalLoop=1;jettySize=auto;html=1;entryX=0;entryY=0.5;entryDx=0;entryDy=0;" parent="1" source="68Y1kHrZlz7YmdwNkERL-37" target="68Y1kHrZlz7YmdwNkERL-41" edge="1">
          <mxGeometry relative="1" as="geometry" />
        </mxCell>
        <mxCell id="68Y1kHrZlz7YmdwNkERL-36" style="edgeStyle=orthogonalEdgeStyle;rounded=0;orthogonalLoop=1;jettySize=auto;html=1;entryX=0;entryY=0.5;entryDx=0;entryDy=0;" parent="1" source="68Y1kHrZlz7YmdwNkERL-37" target="68Y1kHrZlz7YmdwNkERL-46" edge="1">
          <mxGeometry relative="1" as="geometry" />
        </mxCell>
        <mxCell id="68Y1kHrZlz7YmdwNkERL-37" value="Home (ads)&lt;div&gt;Anonymous&lt;/div&gt;" style="rounded=1;whiteSpace=wrap;html=1;fillColor=#FFFF66;" parent="1" vertex="1">
          <mxGeometry x="1030" y="170" width="160" height="70" as="geometry" />
        </mxCell>
        <mxCell id="68Y1kHrZlz7YmdwNkERL-38" style="edgeStyle=orthogonalEdgeStyle;rounded=0;orthogonalLoop=1;jettySize=auto;html=1;entryX=0.5;entryY=0;entryDx=0;entryDy=0;" parent="1" source="68Y1kHrZlz7YmdwNkERL-39" target="68Y1kHrZlz7YmdwNkERL-41" edge="1">
          <mxGeometry relative="1" as="geometry" />
        </mxCell>
        <mxCell id="68Y1kHrZlz7YmdwNkERL-39" value="Register" style="rounded=1;whiteSpace=wrap;html=1;" parent="1" vertex="1">
          <mxGeometry x="1280" y="170" width="160" height="70" as="geometry" />
        </mxCell>
        <mxCell id="68Y1kHrZlz7YmdwNkERL-40" style="edgeStyle=orthogonalEdgeStyle;rounded=0;orthogonalLoop=1;jettySize=auto;html=1;entryX=0.5;entryY=0;entryDx=0;entryDy=0;" parent="1" source="68Y1kHrZlz7YmdwNkERL-41" target="68Y1kHrZlz7YmdwNkERL-44" edge="1">
          <mxGeometry relative="1" as="geometry" />
        </mxCell>
        <mxCell id="eTjQ6S--0Idmj-UR16j9-12" style="edgeStyle=orthogonalEdgeStyle;rounded=0;orthogonalLoop=1;jettySize=auto;html=1;entryX=0;entryY=0.5;entryDx=0;entryDy=0;" edge="1" parent="1" source="68Y1kHrZlz7YmdwNkERL-41" target="eTjQ6S--0Idmj-UR16j9-11">
          <mxGeometry relative="1" as="geometry" />
        </mxCell>
        <mxCell id="68Y1kHrZlz7YmdwNkERL-41" value="Sign In" style="rounded=1;whiteSpace=wrap;html=1;" parent="1" vertex="1">
          <mxGeometry x="1280" y="280" width="160" height="70" as="geometry" />
        </mxCell>
        <mxCell id="68Y1kHrZlz7YmdwNkERL-43" style="edgeStyle=orthogonalEdgeStyle;rounded=0;orthogonalLoop=1;jettySize=auto;html=1;entryX=0.5;entryY=1;entryDx=0;entryDy=0;exitX=0;exitY=0.25;exitDx=0;exitDy=0;" parent="1" source="68Y1kHrZlz7YmdwNkERL-44" target="68Y1kHrZlz7YmdwNkERL-37" edge="1">
          <mxGeometry relative="1" as="geometry" />
        </mxCell>
        <mxCell id="68Y1kHrZlz7YmdwNkERL-61" style="edgeStyle=orthogonalEdgeStyle;rounded=0;orthogonalLoop=1;jettySize=auto;html=1;entryX=0.5;entryY=0;entryDx=0;entryDy=0;exitX=0;exitY=0.75;exitDx=0;exitDy=0;" parent="1" source="68Y1kHrZlz7YmdwNkERL-44" target="68Y1kHrZlz7YmdwNkERL-56" edge="1">
          <mxGeometry relative="1" as="geometry" />
        </mxCell>
        <mxCell id="68Y1kHrZlz7YmdwNkERL-64" style="edgeStyle=orthogonalEdgeStyle;rounded=0;orthogonalLoop=1;jettySize=auto;html=1;entryX=0.5;entryY=0;entryDx=0;entryDy=0;" parent="1" source="68Y1kHrZlz7YmdwNkERL-44" target="68Y1kHrZlz7YmdwNkERL-51" edge="1">
          <mxGeometry relative="1" as="geometry" />
        </mxCell>
        <mxCell id="68Y1kHrZlz7YmdwNkERL-65" style="edgeStyle=orthogonalEdgeStyle;rounded=0;orthogonalLoop=1;jettySize=auto;html=1;entryX=0.5;entryY=0;entryDx=0;entryDy=0;exitX=1;exitY=0.75;exitDx=0;exitDy=0;" parent="1" source="68Y1kHrZlz7YmdwNkERL-44" target="68Y1kHrZlz7YmdwNkERL-54" edge="1">
          <mxGeometry relative="1" as="geometry" />
        </mxCell>
        <mxCell id="68Y1kHrZlz7YmdwNkERL-67" style="edgeStyle=orthogonalEdgeStyle;rounded=0;orthogonalLoop=1;jettySize=auto;html=1;entryX=0;entryY=0.5;entryDx=0;entryDy=0;exitX=1;exitY=0.5;exitDx=0;exitDy=0;" parent="1" source="68Y1kHrZlz7YmdwNkERL-44" target="68Y1kHrZlz7YmdwNkERL-53" edge="1">
          <mxGeometry relative="1" as="geometry" />
        </mxCell>
        <mxCell id="68Y1kHrZlz7YmdwNkERL-44" value="Home (ads)&lt;div&gt;Sign in&lt;/div&gt;" style="rounded=1;whiteSpace=wrap;html=1;fillColor=#FFFF66;" parent="1" vertex="1">
          <mxGeometry x="1280" y="410" width="160" height="70" as="geometry" />
        </mxCell>
        <mxCell id="68Y1kHrZlz7YmdwNkERL-45" style="edgeStyle=orthogonalEdgeStyle;rounded=0;orthogonalLoop=1;jettySize=auto;html=1;entryX=0;entryY=0.5;entryDx=0;entryDy=0;startArrow=classic;startFill=1;" parent="1" source="68Y1kHrZlz7YmdwNkERL-46" target="68Y1kHrZlz7YmdwNkERL-47" edge="1">
          <mxGeometry relative="1" as="geometry" />
        </mxCell>
        <mxCell id="68Y1kHrZlz7YmdwNkERL-46" value="Specific Ad" style="rounded=1;whiteSpace=wrap;html=1;" parent="1" vertex="1">
          <mxGeometry x="1280" y="60" width="160" height="70" as="geometry" />
        </mxCell>
        <mxCell id="68Y1kHrZlz7YmdwNkERL-47" value="Question" style="rounded=1;whiteSpace=wrap;html=1;" parent="1" vertex="1">
          <mxGeometry x="1510" y="60" width="160" height="70" as="geometry" />
        </mxCell>
        <mxCell id="eTjQ6S--0Idmj-UR16j9-10" style="edgeStyle=orthogonalEdgeStyle;rounded=0;orthogonalLoop=1;jettySize=auto;html=1;entryX=0.5;entryY=0;entryDx=0;entryDy=0;startArrow=classic;startFill=1;" edge="1" parent="1" source="68Y1kHrZlz7YmdwNkERL-51" target="eTjQ6S--0Idmj-UR16j9-9">
          <mxGeometry relative="1" as="geometry" />
        </mxCell>
        <mxCell id="68Y1kHrZlz7YmdwNkERL-51" value="Account" style="rounded=1;whiteSpace=wrap;html=1;" parent="1" vertex="1">
          <mxGeometry x="1280" y="515" width="160" height="70" as="geometry" />
        </mxCell>
        <mxCell id="68Y1kHrZlz7YmdwNkERL-53" value="Add ad" style="rounded=1;whiteSpace=wrap;html=1;" parent="1" vertex="1">
          <mxGeometry x="1670" y="400" width="160" height="70" as="geometry" />
        </mxCell>
        <mxCell id="68Y1kHrZlz7YmdwNkERL-66" style="edgeStyle=orthogonalEdgeStyle;rounded=0;orthogonalLoop=1;jettySize=auto;html=1;entryX=0.5;entryY=1;entryDx=0;entryDy=0;" parent="1" source="68Y1kHrZlz7YmdwNkERL-54" target="68Y1kHrZlz7YmdwNkERL-53" edge="1">
          <mxGeometry relative="1" as="geometry" />
        </mxCell>
        <mxCell id="68Y1kHrZlz7YmdwNkERL-71" style="edgeStyle=orthogonalEdgeStyle;rounded=0;orthogonalLoop=1;jettySize=auto;html=1;entryX=0.5;entryY=0;entryDx=0;entryDy=0;" parent="1" source="68Y1kHrZlz7YmdwNkERL-54" target="68Y1kHrZlz7YmdwNkERL-70" edge="1">
          <mxGeometry relative="1" as="geometry" />
        </mxCell>
        <mxCell id="68Y1kHrZlz7YmdwNkERL-54" value="List ads" style="rounded=1;whiteSpace=wrap;html=1;" parent="1" vertex="1">
          <mxGeometry x="1490" y="540" width="160" height="70" as="geometry" />
        </mxCell>
        <mxCell id="68Y1kHrZlz7YmdwNkERL-63" style="edgeStyle=orthogonalEdgeStyle;rounded=0;orthogonalLoop=1;jettySize=auto;html=1;entryX=0.5;entryY=0;entryDx=0;entryDy=0;" parent="1" source="68Y1kHrZlz7YmdwNkERL-56" target="68Y1kHrZlz7YmdwNkERL-57" edge="1">
          <mxGeometry relative="1" as="geometry" />
        </mxCell>
        <mxCell id="68Y1kHrZlz7YmdwNkERL-56" value="List questions" style="rounded=1;whiteSpace=wrap;html=1;" parent="1" vertex="1">
          <mxGeometry x="1100" y="700" width="160" height="70" as="geometry" />
        </mxCell>
        <mxCell id="68Y1kHrZlz7YmdwNkERL-57" value="Answer a specific question" style="rounded=1;whiteSpace=wrap;html=1;" parent="1" vertex="1">
          <mxGeometry x="1100" y="820" width="160" height="70" as="geometry" />
        </mxCell>
        <mxCell id="68Y1kHrZlz7YmdwNkERL-58" value="Sign Out" style="text;html=1;align=center;verticalAlign=middle;whiteSpace=wrap;rounded=0;" parent="1" vertex="1">
          <mxGeometry x="1170" y="400" width="60" height="30" as="geometry" />
        </mxCell>
        <mxCell id="eTjQ6S--0Idmj-UR16j9-1" style="edgeStyle=orthogonalEdgeStyle;rounded=0;orthogonalLoop=1;jettySize=auto;html=1;entryX=1;entryY=0.5;entryDx=0;entryDy=0;" edge="1" parent="1" source="68Y1kHrZlz7YmdwNkERL-70" target="68Y1kHrZlz7YmdwNkERL-56">
          <mxGeometry relative="1" as="geometry" />
        </mxCell>
        <mxCell id="68Y1kHrZlz7YmdwNkERL-70" value="Specific Ad" style="rounded=1;whiteSpace=wrap;html=1;" parent="1" vertex="1">
          <mxGeometry x="1490" y="700" width="160" height="70" as="geometry" />
        </mxCell>
        <mxCell id="eTjQ6S--0Idmj-UR16j9-4" style="edgeStyle=orthogonalEdgeStyle;rounded=0;orthogonalLoop=1;jettySize=auto;html=1;entryX=1;entryY=0.5;entryDx=0;entryDy=0;exitX=0.5;exitY=0;exitDx=0;exitDy=0;" edge="1" parent="1" source="eTjQ6S--0Idmj-UR16j9-2" target="68Y1kHrZlz7YmdwNkERL-28">
          <mxGeometry relative="1" as="geometry" />
        </mxCell>
        <mxCell id="eTjQ6S--0Idmj-UR16j9-2" value="Specific Ad" style="rounded=1;whiteSpace=wrap;html=1;" vertex="1" parent="1">
          <mxGeometry x="750" y="490" width="160" height="70" as="geometry" />
        </mxCell>
        <mxCell id="eTjQ6S--0Idmj-UR16j9-5" value="Edit Account" style="rounded=1;whiteSpace=wrap;html=1;" vertex="1" parent="1">
          <mxGeometry x="280" y="620" width="160" height="70" as="geometry" />
        </mxCell>
        <mxCell id="eTjQ6S--0Idmj-UR16j9-9" value="Edit Account" style="rounded=1;whiteSpace=wrap;html=1;" vertex="1" parent="1">
          <mxGeometry x="1280" y="630" width="160" height="70" as="geometry" />
        </mxCell>
        <mxCell id="eTjQ6S--0Idmj-UR16j9-15" style="edgeStyle=orthogonalEdgeStyle;rounded=0;orthogonalLoop=1;jettySize=auto;html=1;entryX=0;entryY=0.5;entryDx=0;entryDy=0;" edge="1" parent="1" source="eTjQ6S--0Idmj-UR16j9-11" target="eTjQ6S--0Idmj-UR16j9-14">
          <mxGeometry relative="1" as="geometry" />
        </mxCell>
        <mxCell id="eTjQ6S--0Idmj-UR16j9-11" value="Admin view" style="rounded=1;whiteSpace=wrap;html=1;" vertex="1" parent="1">
          <mxGeometry x="1470" y="280" width="160" height="70" as="geometry" />
        </mxCell>
        <mxCell id="eTjQ6S--0Idmj-UR16j9-14" value="Home (ads)&lt;div&gt;Login as Admin&lt;/div&gt;" style="rounded=1;whiteSpace=wrap;html=1;fillColor=#FFFF66;" vertex="1" parent="1">
          <mxGeometry x="1680" y="280" width="160" height="70" as="geometry" />
        </mxCell>
      </root>
    </mxGraphModel>
  </diagram>
</mxfile>
